# xmcd
#
# Track frame offsets:
#	150
#	16880
#	31933
#	46740
#	61543
#	78173
#	92433
#	111963
#	128720
#	142125
#	160148
#	176410
#	190405
#	208555
#	223713
#	241943
#
# Disc length: 3424 seconds
#
# Revision: 1
# Processed by: cddbd v1.5.1PL0 Copyright (c) Steve Scherf et al.
# Submitted via: CDex 1.50Beta5
#
DISCID=cb0d5e10
DTITLE=石原裕次郎 - 石原裕次郎ベスト〜遥かなる愛〜
DYEAR=1993
DGENRE=Pop
TTITLE0=遥かなる愛
TTITLE1=俺はお前に弱いんだ
TTITLE2=夜霧の慕情
TTITLE3=赤いハンカチ
TTITLE4=時間よお前は…
TTITLE5=思い出さがし
TTITLE6=北の旅人
TTITLE7=夜霧よ今夜も有難う
TTITLE8=海としあわせ
TTITLE9=二人の世界
TTITLE10=ブランデーグラス
TTITLE11=港町 涙町 別れ町
TTITLE12=恋の町札幌
TTITLE13=涙は俺がふく
TTITLE14=わが人生に悔いなし
TTITLE15=粋な別れ
EXTD=
EXTT0=
EXTT1=
EXTT2=
EXTT3=
EXTT4=
EXTT5=
EXTT6=
EXTT7=
EXTT8=
EXTT9=
EXTT10=
EXTT11=
EXTT12=
EXTT13=
EXTT14=
EXTT15=
PLAYORDER=
